<svg width="659.5px" height="122.4px" xmlns="http://www.w3.org/2000/svg" viewBox="-79.74001464843747 13.800003051757812 659.4800292968749 122.39999389648438" style="background: rgba(0, 0, 0, 0) none repeat scroll 0% 0%" preserveAspectRatio="xMidYMid"><defs><linearGradient id="editing-gradient-gradient" x1="0" x2="1" y1="0.5" y2="0.5" gradientUnits="objectBoundingBox"><stop offset="0" stop-color="#51b3e6"></stop><stop offset="1" stop-color="#ff00ff"></stop></linearGradient></defs><g><g transform="matrix(1.4,0,0,1.3,-53.8,150.6)"><path d="M 5.2 -37.6 L -8.7 -37.6 L -0.6 -79.9 L 13.5 -79.9 L 5.2 -37.6 Z M 61 -36.3 L 61 -36.3 L 61 -36.3 Q 53.2 -36.3 53.2 -42.4 L 53.2 -42.4 L 53.2 -42.4 Q 53.2 -45 54.4 -50.1 L 54.4 -50.1 L 54.4 -50.1 Q 55.5 -55.2 55.9 -57.2 L 55.9 -57.2 L 55.9 -57.2 Q 56.8 -61.9 56.8 -63.4 L 56.8 -63.4 L 56.8 -63.4 Q 56.8 -66.6 54.3 -66.6 L 54.3 -66.6 L 54.3 -66.6 Q 52.7 -66.6 51.2 -64.4 L 51.2 -64.4 L 51.2 -64.4 Q 49.7 -62.2 49 -57.8 L 49 -57.8 L 45 -37.6 L 32.5 -36.3 L 36 -53.8 L 36 -53.8 Q 36.5 -56.6 37 -59.9 L 37 -59.9 L 37 -59.9 Q 37.6 -63.2 37.6 -63.7 L 37.6 -63.7 L 37.6 -63.7 Q 37.6 -66.6 35.4 -66.6 L 35.4 -66.6 L 35.4 -66.6 Q 33.9 -66.6 32.3 -64.4 L 32.3 -64.4 L 32.3 -64.4 Q 30.7 -62.3 29.8 -57.8 L 29.8 -57.8 L 25.9 -37.6 L 13.3 -36.3 L 20 -70.3 L 30.5 -71.5 L 29.4 -65.1 L 29.4 -65.1 Q 31 -68.5 34.1 -70 L 34.1 -70 L 34.1 -70 Q 37.2 -71.5 42 -71.5 L 42 -71.5 L 42 -71.5 Q 44.7 -71.5 46.5 -70.2 L 46.5 -70.2 L 46.5 -70.2 Q 48.3 -68.9 48.9 -66.7 L 48.9 -66.7 L 48.9 -66.7 Q 50 -68.9 52.8 -70.2 L 52.8 -70.2 L 52.8 -70.2 Q 55.5 -71.5 59 -71.5 L 59 -71.5 L 59 -71.5 Q 62.4 -71.5 64.1 -70.8 L 64.1 -70.8 L 64.1 -70.8 Q 65.8 -70.1 66.8 -68.9 L 66.8 -68.9 L 66.8 -68.9 Q 68.5 -66.6 68.5 -62.5 L 68.5 -62.5 L 68.5 -62.5 Q 68.5 -58.5 66.8 -50.1 L 66.8 -50.1 L 66.8 -50.1 Q 65.9 -46 65.9 -44.5 L 65.9 -44.5 L 65.9 -44.5 Q 65.9 -43 66.8 -42.1 L 66.8 -42.1 L 66.8 -42.1 Q 67.6 -41.2 68.9 -41.1 L 68.9 -41.1 L 68.9 -41.1 Q 68.3 -38.9 66.1 -37.6 L 66.1 -37.6 L 66.1 -37.6 Q 63.9 -36.3 61 -36.3 Z M 76.6 -39.5 L 76.6 -39.5 L 76.6 -39.5 Q 75.1 -41.2 74.5 -43.8 L 74.5 -43.8 L 74.5 -43.8 Q 73.8 -46.5 73.8 -50.7 L 73.8 -50.7 L 73.8 -50.7 Q 73.8 -55 75.3 -58.9 L 75.3 -58.9 L 75.3 -58.9 Q 76.7 -62.8 79.4 -65.7 L 79.4 -65.7 L 79.4 -65.7 Q 84.9 -71.5 94 -71.5 L 94 -71.5 L 94 -71.5 Q 97.3 -71.5 99.6 -70.5 L 99.6 -70.5 L 110.6 -71.5 L 105.8 -46.6 L 105.8 -46.6 Q 105.7 -45.8 105.7 -44.4 L 105.7 -44.4 L 105.7 -44.4 Q 105.7 -43 106.5 -42.1 L 106.5 -42.1 L 106.5 -42.1 Q 107.4 -41.2 108.7 -41.1 L 108.7 -41.1 L 108.7 -41.1 Q 108 -38.9 105.7 -37.6 L 105.7 -37.6 L 105.7 -37.6 Q 103.4 -36.3 100.7 -36.3 L 100.7 -36.3 L 100.7 -36.3 Q 98.1 -36.3 96.3 -37.3 L 96.3 -37.3 L 96.3 -37.3 Q 94.6 -38.3 94.1 -40 L 94.1 -40 L 94.1 -40 Q 93 -38.4 90.9 -37.4 L 90.9 -37.4 L 90.9 -37.4 Q 88.7 -36.3 85.8 -36.3 L 85.8 -36.3 L 85.8 -36.3 Q 82.9 -36.3 80.5 -37.1 L 80.5 -37.1 L 80.5 -37.1 Q 78.1 -37.9 76.6 -39.5 Z M 90.1 -65.5 L 90.1 -65.5 L 90.1 -65.5 Q 89.4 -64.4 88.8 -62.4 L 88.8 -62.4 L 88.8 -62.4 Q 88.1 -60.5 87.1 -55.3 L 87.1 -55.3 L 87.1 -55.3 Q 86 -50 86 -46.3 L 86 -46.3 L 86 -46.3 Q 86 -42.6 86.6 -41.5 L 86.6 -41.5 L 86.6 -41.5 Q 87.2 -40.4 88.2 -40.4 L 88.2 -40.4 L 88.2 -40.4 Q 90.2 -40.4 91.7 -42.4 L 91.7 -42.4 L 91.7 -42.4 Q 93.2 -44.3 93.8 -47.8 L 93.8 -47.8 L 97.2 -66.6 L 97.2 -66.6 Q 95.9 -67.7 94.3 -67.7 L 94.3 -67.7 L 94.3 -67.7 Q 92.7 -67.7 91.8 -67.2 L 91.8 -67.2 L 91.8 -67.2 Q 90.9 -66.7 90.1 -65.5 Z M 118.3 -64.4 L 118.3 -64.4 L 118.3 -64.4 Q 120.5 -67.4 123.8 -69.5 L 123.8 -69.5 L 123.8 -69.5 Q 127.1 -71.5 131.1 -71.5 L 131.1 -71.5 L 131.1 -71.5 Q 135.2 -71.5 137.1 -70.3 L 137.1 -70.3 L 149.6 -71.5 L 145.3 -47 L 145.3 -47 Q 143 -34.4 138.3 -29.5 L 138.3 -29.5 L 138.3 -29.5 Q 133.8 -24.8 124.9 -24.8 L 124.9 -24.8 L 124.9 -24.8 Q 118.2 -24.8 114.4 -26.9 L 114.4 -26.9 L 114.4 -26.9 Q 110.5 -29 110.5 -32.6 L 110.5 -32.6 L 110.5 -32.6 Q 110.5 -35.2 112.5 -36.7 L 112.5 -36.7 L 112.5 -36.7 Q 114.5 -38.2 117.6 -38.2 L 117.6 -38.2 L 117.6 -38.2 Q 120.2 -38.2 122.3 -37 L 122.3 -37 L 122.3 -37 Q 123.5 -36.3 124.1 -35.4 L 124.1 -35.4 L 124.1 -35.4 Q 122.6 -34.2 122.6 -32.1 L 122.6 -32.1 L 122.6 -32.1 Q 122.6 -29.3 125.2 -29.3 L 125.2 -29.3 L 125.2 -29.3 Q 129.5 -29.3 131.9 -39.4 L 131.9 -39.4 L 131.9 -39.4 Q 132.6 -42.2 133.2 -44.9 L 133.2 -44.9 L 133.2 -44.9 Q 130.3 -41.4 123.8 -41.4 L 123.8 -41.4 L 123.8 -41.4 Q 119.2 -41.4 116.6 -43.6 L 116.6 -43.6 L 116.6 -43.6 Q 114 -45.8 114 -50.9 L 114 -50.9 L 114 -50.9 Q 114 -54.1 115.1 -57.7 L 115.1 -57.7 L 115.1 -57.7 Q 116.2 -61.3 118.3 -64.4 Z M 126.6 -50.7 L 126.6 -50.7 L 126.6 -50.7 Q 126.6 -46.3 128.9 -46.3 L 128.9 -46.3 L 128.9 -46.3 Q 130.4 -46.3 131.9 -48 L 131.9 -48 L 131.9 -48 Q 133 -49.3 133.5 -51.3 L 133.5 -51.3 L 136.8 -67.8 L 136.8 -67.8 Q 136.4 -67.8 136.1 -68 L 136.1 -68 L 136.1 -68 Q 135.5 -68.2 134.6 -68.2 L 134.6 -68.2 L 134.6 -68.2 Q 130.7 -68.2 128.4 -61.8 L 128.4 -61.8 L 128.4 -61.8 Q 126.6 -56.8 126.6 -50.7 Z M 178 -48.4 L 178 -48.4 L 178 -48.4 Q 179.6 -47.4 179.6 -45 L 179.6 -45 L 179.6 -45 Q 179.6 -42.6 178.4 -41 L 178.4 -41 L 178.4 -41 Q 177.2 -39.5 175.2 -38.5 L 175.2 -38.5 L 175.2 -38.5 Q 171.1 -36.3 166.7 -36.3 L 166.7 -36.3 L 166.7 -36.3 Q 162.3 -36.3 159.7 -37.3 L 159.7 -37.3 L 159.7 -37.3 Q 157.1 -38.3 155.4 -40.1 L 155.4 -40.1 L 155.4 -40.1 Q 152 -43.4 152 -49.7 L 152 -49.7 L 152 -49.7 Q 152 -59.3 157.2 -65.2 L 157.2 -65.2 L 157.2 -65.2 Q 162.9 -71.5 172.7 -71.5 L 172.7 -71.5 L 172.7 -71.5 Q 178.7 -71.5 181.8 -69 L 181.8 -69 L 181.8 -69 Q 184 -67.1 184 -63.9 L 184 -63.9 L 184 -63.9 Q 184 -52.7 164.5 -52.7 L 164.5 -52.7 L 164.5 -52.7 Q 164.3 -51 164.3 -49.6 L 164.3 -49.6 L 164.3 -49.6 Q 164.3 -46.6 165.6 -45.5 L 165.6 -45.5 L 165.6 -45.5 Q 166.9 -44.4 169.3 -44.4 L 169.3 -44.4 L 169.3 -44.4 Q 171.8 -44.4 174.4 -45.5 L 174.4 -45.5 L 174.4 -45.5 Q 177 -46.6 178 -48.4 Z M 165 -55.4 L 165 -55.4 L 165 -55.4 Q 169.5 -55.4 172.2 -58.2 L 172.2 -58.2 L 172.2 -58.2 Q 174.8 -60.9 174.8 -65.2 L 174.8 -65.2 L 174.8 -65.2 Q 174.8 -66.7 174.2 -67.5 L 174.2 -67.5 L 174.2 -67.5 Q 173.7 -68.3 172.6 -68.3 L 172.6 -68.3 L 172.6 -68.3 Q 171.5 -68.3 170.6 -67.9 L 170.6 -67.9 L 170.6 -67.9 Q 169.7 -67.4 168.7 -66 L 168.7 -66 L 168.7 -66 Q 166.3 -62.8 165 -55.4 Z M 205.3 -60.1 L 205.3 -60.1 L 205.3 -60.1 Q 206.2 -62.5 206.2 -64.5 L 206.2 -64.5 L 206.2 -64.5 Q 206.2 -68.3 203.1 -68.3 L 203.1 -68.3 L 203.1 -68.3 Q 201.5 -68.3 200.2 -66.8 L 200.2 -66.8 L 200.2 -66.8 Q 198.9 -65.4 198.9 -63.6 L 198.9 -63.6 L 198.9 -63.6 Q 198.9 -62.3 199.9 -61.3 L 199.9 -61.3 L 199.9 -61.3 Q 201.4 -59.9 205.2 -57.6 L 205.2 -57.6 L 205.2 -57.6 Q 209 -55.3 210.4 -53.4 L 210.4 -53.4 L 210.4 -53.4 Q 211.8 -51.5 211.8 -48.9 L 211.8 -48.9 L 211.8 -48.9 Q 211.8 -46.3 210.6 -44 L 210.6 -44 L 210.6 -44 Q 209.3 -41.6 207.1 -39.9 L 207.1 -39.9 L 207.1 -39.9 Q 202.3 -36.3 194.6 -36.3 L 194.6 -36.3 L 194.6 -36.3 Q 190.5 -36.3 187.3 -38.5 L 187.3 -38.5 L 187.3 -38.5 Q 184.1 -40.6 184.1 -43.1 L 184.1 -43.1 L 184.1 -43.1 Q 184.1 -45.6 185.9 -47.1 L 185.9 -47.1 L 185.9 -47.1 Q 187.7 -48.6 190.4 -48.6 L 190.4 -48.6 L 190.4 -48.6 Q 193.1 -48.6 194.7 -47.5 L 194.7 -47.5 L 194.7 -47.5 Q 193.9 -45.4 193.9 -44 L 193.9 -44 L 193.9 -44 Q 193.9 -39.8 197.5 -39.8 L 197.5 -39.8 L 197.5 -39.8 Q 199 -39.8 200.1 -40.8 L 200.1 -40.8 L 200.1 -40.8 Q 201.1 -41.7 201.1 -43.4 L 201.1 -43.4 L 201.1 -43.4 Q 201.1 -46.6 195.6 -50.1 L 195.6 -50.1 L 195.6 -50.1 Q 191.1 -53 190.1 -54.2 L 190.1 -54.2 L 190.1 -54.2 Q 188.3 -56.2 188.3 -58.8 L 188.3 -58.8 L 188.3 -58.8 Q 188.3 -61.4 189.6 -63.8 L 189.6 -63.8 L 189.6 -63.8 Q 190.8 -66.2 193 -68 L 193 -68 L 193 -68 Q 197.7 -71.5 205.8 -71.5 L 205.8 -71.5 L 205.8 -71.5 Q 210 -71.5 212.4 -69.9 L 212.4 -69.9 L 212.4 -69.9 Q 214.9 -68.2 214.9 -65.4 L 214.9 -65.4 L 214.9 -65.4 Q 214.9 -62.6 213.2 -61 L 213.2 -61 L 213.2 -61 Q 211.5 -59.4 208.4 -59.4 L 208.4 -59.4 L 208.4 -59.4 Q 206.3 -59.4 205.3 -60.1 Z M 256.4 -58.2 L 269.3 -59.4 L 269.3 -59.4 Q 264.7 -49.3 264.7 -37.6 L 264.7 -37.6 L 264.7 -37.6 Q 263 -36.3 260.4 -36.3 L 260.4 -36.3 L 260.4 -36.3 Q 257.9 -36.3 256.3 -37.5 L 256.3 -37.5 L 256.3 -37.5 Q 254.7 -38.7 254.4 -39.9 L 254.4 -39.9 L 254.4 -39.9 Q 252.8 -38.3 250.2 -37.3 L 250.2 -37.3 L 250.2 -37.3 Q 247.6 -36.3 244.9 -36.3 L 244.9 -36.3 L 244.9 -36.3 Q 242.1 -36.3 239.7 -37.2 L 239.7 -37.2 L 239.7 -37.2 Q 237.3 -38.1 235.4 -40.1 L 235.4 -40.1 L 235.4 -40.1 Q 231.4 -44.5 231.4 -52.7 L 231.4 -52.7 L 231.4 -52.7 Q 231.4 -65.5 238.2 -73.2 L 238.2 -73.2 L 238.2 -73.2 Q 245.2 -81.1 257.7 -81.1 L 257.7 -81.1 L 257.7 -81.1 Q 266.4 -81.1 269.4 -76.7 L 269.4 -76.7 L 269.4 -76.7 Q 270.4 -75.3 270.4 -73.6 L 270.4 -73.6 L 270.4 -73.6 Q 270.4 -71.9 269.7 -70.4 L 269.7 -70.4 L 269.7 -70.4 Q 268.9 -69 267.8 -67.8 L 267.8 -67.8 L 267.8 -67.8 Q 265 -65.3 261.6 -65.3 L 261.6 -65.3 L 261.6 -65.3 Q 260.3 -65.3 259 -65.7 L 259 -65.7 L 259 -65.7 Q 259.3 -67.6 259.3 -69.9 L 259.3 -69.9 L 259.3 -69.9 Q 259.3 -72.1 259.1 -73.1 L 259.1 -73.1 L 259.1 -73.1 Q 258.9 -74.2 258.6 -75 L 258.6 -75 L 258.6 -75 Q 257.7 -76.7 255.9 -76.7 L 255.9 -76.7 L 255.9 -76.7 Q 254.1 -76.7 252.1 -74.8 L 252.1 -74.8 L 252.1 -74.8 Q 250 -72.8 248.4 -69.6 L 248.4 -69.6 L 248.4 -69.6 Q 244.9 -62.5 244.9 -53.8 L 244.9 -53.8 L 244.9 -53.8 Q 244.9 -49.8 246.5 -47 L 246.5 -47 L 246.5 -47 Q 248.1 -44 251.1 -44 L 251.1 -44 L 251.1 -44 Q 252.1 -44 253 -44.5 L 253 -44.5 L 253 -44.5 Q 253.9 -45 254.3 -45.4 L 254.3 -45.4 L 256.4 -58.2 Z M 275.2 -39.5 L 275.2 -39.5 L 275.2 -39.5 Q 273.7 -41.2 273 -43.8 L 273 -43.8 L 273 -43.8 Q 272.4 -46.5 272.4 -50.7 L 272.4 -50.7 L 272.4 -50.7 Q 272.4 -55 273.8 -58.9 L 273.8 -58.9 L 273.8 -58.9 Q 275.3 -62.8 278 -65.7 L 278 -65.7 L 278 -65.7 Q 283.5 -71.5 292.6 -71.5 L 292.6 -71.5 L 292.6 -71.5 Q 295.9 -71.5 298.2 -70.5 L 298.2 -70.5 L 309.2 -71.5 L 304.4 -46.6 L 304.4 -46.6 Q 304.2 -45.8 304.2 -44.4 L 304.2 -44.4 L 304.2 -44.4 Q 304.2 -43 305.1 -42.1 L 305.1 -42.1 L 305.1 -42.1 Q 306 -41.2 307.3 -41.1 L 307.3 -41.1 L 307.3 -41.1 Q 306.6 -38.9 304.3 -37.6 L 304.3 -37.6 L 304.3 -37.6 Q 301.9 -36.3 299.3 -36.3 L 299.3 -36.3 L 299.3 -36.3 Q 296.7 -36.3 294.9 -37.3 L 294.9 -37.3 L 294.9 -37.3 Q 293.2 -38.3 292.7 -40 L 292.7 -40 L 292.7 -40 Q 291.6 -38.4 289.5 -37.4 L 289.5 -37.4 L 289.5 -37.4 Q 287.3 -36.3 284.4 -36.3 L 284.4 -36.3 L 284.4 -36.3 Q 281.5 -36.3 279.1 -37.1 L 279.1 -37.1 L 279.1 -37.1 Q 276.7 -37.9 275.2 -39.5 Z M 288.7 -65.5 L 288.7 -65.5 L 288.7 -65.5 Q 288 -64.4 287.4 -62.4 L 287.4 -62.4 L 287.4 -62.4 Q 286.7 -60.5 285.7 -55.3 L 285.7 -55.3 L 285.7 -55.3 Q 284.6 -50 284.6 -46.3 L 284.6 -46.3 L 284.6 -46.3 Q 284.6 -42.6 285.2 -41.5 L 285.2 -41.5 L 285.2 -41.5 Q 285.8 -40.4 286.8 -40.4 L 286.8 -40.4 L 286.8 -40.4 Q 288.8 -40.4 290.3 -42.4 L 290.3 -42.4 L 290.3 -42.4 Q 291.8 -44.3 292.4 -47.8 L 292.4 -47.8 L 295.8 -66.6 L 295.8 -66.6 Q 294.5 -67.7 292.9 -67.7 L 292.9 -67.7 L 292.9 -67.7 Q 291.3 -67.7 290.4 -67.2 L 290.4 -67.2 L 290.4 -67.2 Q 289.5 -66.7 288.7 -65.5 Z M 327.9 -41.1 L 327.9 -41.1 L 327.9 -41.1 Q 325.9 -36.3 319.6 -36.3 L 319.6 -36.3 L 319.6 -36.3 Q 316.4 -36.3 314.4 -38.6 L 314.4 -38.6 L 314.4 -38.6 Q 312.7 -40.4 312.7 -42.6 L 312.7 -42.6 L 312.7 -42.6 Q 312.7 -47.4 314.9 -57.8 L 314.9 -57.8 L 319.6 -82.4 L 332.6 -83.7 L 326.4 -51.3 L 326.4 -51.3 Q 325.3 -46.6 325.3 -44.9 L 325.3 -44.9 L 325.3 -44.9 Q 325.3 -41.3 327.9 -41.1 Z M 348.7 -41.1 L 348.7 -41.1 L 348.7 -41.1 Q 346.7 -36.3 340.3 -36.3 L 340.3 -36.3 L 340.3 -36.3 Q 337.1 -36.3 335.1 -38.6 L 335.1 -38.6 L 335.1 -38.6 Q 333.4 -40.4 333.4 -42.6 L 333.4 -42.6 L 333.4 -42.6 Q 333.4 -47.4 335.7 -57.8 L 335.7 -57.8 L 340.3 -82.4 L 353.3 -83.7 L 347.1 -51.3 L 347.1 -51.3 Q 346 -46.6 346 -44.9 L 346 -44.9 L 346 -44.9 Q 346 -41.3 348.7 -41.1 Z M 380 -48.4 L 380 -48.4 L 380 -48.4 Q 381.6 -47.4 381.6 -45 L 381.6 -45 L 381.6 -45 Q 381.6 -42.6 380.4 -41 L 380.4 -41 L 380.4 -41 Q 379.2 -39.5 377.2 -38.5 L 377.2 -38.5 L 377.2 -38.5 Q 373.1 -36.3 368.7 -36.3 L 368.7 -36.3 L 368.7 -36.3 Q 364.3 -36.3 361.7 -37.3 L 361.7 -37.3 L 361.7 -37.3 Q 359.1 -38.3 357.4 -40.1 L 357.4 -40.1 L 357.4 -40.1 Q 354 -43.4 354 -49.7 L 354 -49.7 L 354 -49.7 Q 354 -59.3 359.2 -65.2 L 359.2 -65.2 L 359.2 -65.2 Q 364.9 -71.5 374.6 -71.5 L 374.6 -71.5 L 374.6 -71.5 Q 380.7 -71.5 383.7 -69 L 383.7 -69 L 383.7 -69 Q 386 -67.1 386 -63.9 L 386 -63.9 L 386 -63.9 Q 386 -52.7 366.5 -52.7 L 366.5 -52.7 L 366.5 -52.7 Q 366.3 -51 366.3 -49.6 L 366.3 -49.6 L 366.3 -49.6 Q 366.3 -46.6 367.6 -45.5 L 367.6 -45.5 L 367.6 -45.5 Q 368.9 -44.4 371.3 -44.4 L 371.3 -44.4 L 371.3 -44.4 Q 373.8 -44.4 376.3 -45.5 L 376.3 -45.5 L 376.3 -45.5 Q 378.9 -46.6 380 -48.4 Z M 367 -55.4 L 367 -55.4 L 367 -55.4 Q 371.5 -55.4 374.1 -58.2 L 374.1 -58.2 L 374.1 -58.2 Q 376.8 -60.9 376.8 -65.2 L 376.8 -65.2 L 376.8 -65.2 Q 376.8 -66.7 376.2 -67.5 L 376.2 -67.5 L 376.2 -67.5 Q 375.7 -68.3 374.6 -68.3 L 374.6 -68.3 L 374.6 -68.3 Q 373.5 -68.3 372.6 -67.9 L 372.6 -67.9 L 372.6 -67.9 Q 371.6 -67.4 370.7 -66 L 370.7 -66 L 370.7 -66 Q 368.3 -62.8 367 -55.4 Z M 408.2 -55.6 L 408.2 -55.6 L 408.2 -55.6 Q 410.5 -59.7 410.5 -63.9 L 410.5 -63.9 L 410.5 -63.9 Q 410.5 -66.6 408.5 -66.6 L 408.5 -66.6 L 408.5 -66.6 Q 407 -66.6 405.4 -64 L 405.4 -64 L 405.4 -64 Q 403.7 -61.4 403.2 -58 L 403.2 -58 L 399.9 -37.6 L 386.6 -36.3 L 393.1 -70.3 L 403.7 -71.5 L 402.6 -65.1 L 402.6 -65.1 Q 405.7 -71.5 412.7 -71.5 L 412.7 -71.5 L 412.7 -71.5 Q 416.4 -71.5 418.5 -69.6 L 418.5 -69.6 L 418.5 -69.6 Q 420.5 -67.7 420.5 -63.8 L 420.5 -63.8 L 420.5 -63.8 Q 420.5 -59.8 417.9 -57.3 L 417.9 -57.3 L 417.9 -57.3 Q 415.3 -54.8 410.9 -54.8 L 410.9 -54.8 L 410.9 -54.8 Q 409 -54.8 408.2 -55.6 Z M 441.8 -44.9 L 441.8 -44.9 L 441.8 -44.9 Q 438.5 -41.4 432.4 -41.4 L 432.4 -41.4 L 432.4 -41.4 Q 424.8 -41.4 423.2 -47 L 423.2 -47 L 423.2 -47 Q 422.7 -48.6 422.7 -50.5 L 422.7 -50.5 L 422.7 -50.5 Q 422.7 -52.3 423.1 -54.3 L 423.1 -54.3 L 426.1 -70.3 L 439.1 -71.5 L 435.6 -52.9 L 435.6 -52.9 Q 435.4 -52.1 435.3 -51.2 L 435.3 -51.2 L 435.3 -51.2 Q 435.1 -50.3 435.1 -49.4 L 435.1 -49.4 L 435.1 -49.4 Q 435.1 -48.4 435.4 -47.8 L 435.4 -47.8 L 435.4 -47.8 Q 435.7 -47.2 436.2 -46.8 L 436.2 -46.8 L 436.2 -46.8 Q 436.9 -46.3 438.3 -46.3 L 438.3 -46.3 L 438.3 -46.3 Q 439.7 -46.3 440.9 -48 L 440.9 -48 L 440.9 -48 Q 442 -49.7 442.6 -52.5 L 442.6 -52.5 L 446.1 -70.3 L 458.7 -71.5 L 453.9 -46.4 L 453.9 -46.4 Q 451.6 -34.1 446.7 -29.2 L 446.7 -29.2 L 446.7 -29.2 Q 444.2 -26.7 441 -25.8 L 441 -25.8 L 441 -25.8 Q 437.8 -24.8 433.6 -24.8 L 433.6 -24.8 L 433.6 -24.8 Q 426.9 -24.8 423 -26.9 L 423 -26.9 L 423 -26.9 Q 419.2 -29 419.2 -32.5 L 419.2 -32.5 L 419.2 -32.5 Q 419.2 -35.1 421.2 -36.6 L 421.2 -36.6 L 421.2 -36.6 Q 423.2 -38.1 426.2 -38.1 L 426.2 -38.1 L 426.2 -38.1 Q 428.9 -38.1 431 -37 L 431 -37 L 431 -37 Q 432.2 -36.3 432.8 -35.4 L 432.8 -35.4 L 432.8 -35.4 Q 431.3 -34.1 431.3 -32 L 431.3 -32 L 431.3 -32 Q 431.3 -29.2 433.8 -29.2 L 433.8 -29.2 L 433.8 -29.2 Q 438.1 -29.2 440.5 -38.9 L 440.5 -38.9 L 440.5 -38.9 Q 441.2 -41.8 441.8 -44.9 Z" fill="url(#editing-gradient-gradient)"></path></g></g><style>text {
  font-size: 64px;
  font-family: Arial Black;
  dominant-baseline: central;
  text-anchor: middle;
}</style></svg>